<svg width="80" height="80" viewBox="0 0 80 80" fill="none" xmlns="http://www.w3.org/2000/svg">
<path d="M72.125 19.1875L41.9375 1.8125C41.4375 1.5 40.75 1.375 40 1.375C39.25 1.375 38.5625 1.5625 38.0625 1.8125L8.0625 19.25C7 19.875 6.25 21.4375 6.25 22.625V57.4375C6.25 58.125 6.375 58.9375 6.875 59.625L73.625 20.875C73.25 20.125 72.6875 19.5625 72.125 19.1875Z" fill="#54BFED"/>
<path d="M6.6875 59.5625C7 60.0625 7.4375 60.5 7.875 60.75L38 78.1875C38.5 78.5 39.1875 78.625 39.9375 78.625C40.6875 78.625 41.375 78.4375 41.875 78.1875L71.875 60.75C72.9375 60.125 73.6875 58.5625 73.6875 57.375V22.5625C73.6875 22 73.625 21.375 73.3125 20.8125L6.6875 59.5625Z" fill="#5473ED"/>
<path d="M47.375 48.125C45.3125 51.0312 41.9375 52.875 38.0625 52.875C31.5625 52.875 26.25 47.5625 26.25 41C26.25 34.4375 31.5625 29.125 38.0625 29.125C41.9375 29.125 45.3125 31.0312 47.375 33.875L54.1875 29.9375C50.75 24.5625 44.75 21 38.0625 21C27.25 21 18.5 29.9375 18.5 41C18.5 52.0625 27.25 61 38.0625 61C44.75 61 50.75 57.4375 54.1875 52.0625L47.375 48.125Z" fill="white"/>
<path d="M59.4375 34L58.75 38.25H62.5V42.1875H58.125L57.5 45.8125H61.25V49.75H56.875L55.9375 55H52.0625L53 49.75H49.875L48.9375 55H45.0625L46 49.75H42.5V45.8125H46.625L47.25 42.1875H43.75V38.25H47.875L48.5625 34H52.4375L51.75 38.25H54.875L55.5625 34H59.4375ZM51.125 42.1875L50.5 45.8125H53.625L54.25 42.1875H51.125Z" fill="white"/>
</svg>
