<svg width="80" height="80" viewBox="0 0 80 80" fill="none" xmlns="http://www.w3.org/2000/svg">
<path d="M40 73C58.2254 73 73 58.2254 73 40C73 21.7746 58.2254 7 40 7C21.7746 7 7 21.7746 7 40C7 58.2254 21.7746 73 40 73Z" fill="white" opacity="0.18"/>
<path d="M23.5 50.5L38.25 35.75L44.25 41.75L29.5 56.5C27.8125 58.1875 25.1875 58.1875 23.5 56.5C21.8125 54.8125 21.8125 52.1875 23.5 50.5Z" fill="white"/>
<path d="M39.75 34.25L54.5 19.5L60.5 25.5L45.75 40.25L39.75 34.25Z" fill="white"/>
<path d="M51.25 22.75L58 16L64 22L57.25 28.75L51.25 22.75Z" fill="white" opacity="0.9"/>
<path d="M37.625 36.375L44 42.75L38.875 47.875L32.5 41.5L37.625 36.375Z" fill="white" opacity="0.72"/>
<path d="M49.25 52.5C56.4297 52.5 62.25 46.6797 62.25 39.5C62.25 36.75 61.375 34.1875 59.875 32.0625" stroke="white" stroke-width="5" stroke-linecap="round" opacity="0.82"/>
</svg>
