<svg width="80" height="80" viewBox="0 0 80 80" fill="none" xmlns="http://www.w3.org/2000/svg">
<path d="M40 3.75C58.125 3.75 71.25 11.25 71.25 22.1875V57.8125C71.25 68.75 58.125 76.25 40 76.25C21.875 76.25 8.75 68.75 8.75 57.8125V22.1875C8.75 11.25 21.875 3.75 40 3.75Z" fill="url(#sqlServerGradient)"/>
<path d="M66.25 22.1875C66.25 28.8125 54.5 34.1875 40 34.1875C25.5 34.1875 13.75 28.8125 13.75 22.1875" stroke="white" stroke-width="4" stroke-linecap="round"/>
<path d="M66.25 40C66.25 46.625 54.5 52 40 52C25.5 52 13.75 46.625 13.75 40" stroke="white" stroke-width="4" stroke-linecap="round" opacity="0.78"/>
<path d="M66.25 57.8125C66.25 64.4375 54.5 69.8125 40 69.8125C25.5 69.8125 13.75 64.4375 13.75 57.8125" stroke="white" stroke-width="4" stroke-linecap="round" opacity="0.78"/>
<text x="40" y="55" text-anchor="middle" fill="white" font-family="Arial, sans-serif" font-size="18" font-weight="800" letter-spacing="0">SQL</text>
<defs>
<linearGradient id="sqlServerGradient" x1="71.25" y1="40" x2="8.75" y2="40" gradientUnits="userSpaceOnUse">
<stop stop-color="#5473ED"/>
<stop offset="1" stop-color="#54BFED"/>
</linearGradient>
</defs>
</svg>
